<svg fill="currentcolor" fill-rule="evenodd" stroke-linejoin="round" stroke-miterlimit="1.41421" viewBox="0 0 136 42" space="preserve">
  <path d="M82.4 35.9V19.1h9.8v2.1h-7.7v5.5h6.9v2h-6.9v7.2h-2.1Zm22.7-5.7c0 3.5-2.5 6.1-5.9 6.1-3.5 0-5.9-2.6-5.9-6.1 0-3.5 2.5-6.1 5.9-6.1 3.4-.1 5.9 2.6 5.9 6.1Zm-2.2 0c0-2.6-1.8-4.2-3.8-4.2-2 0-3.8 1.5-3.8 4.2 0 2.6 1.8 4.2 3.8 4.2 2 0 3.8-1.6 3.8-4.2ZM109 26c.7-1.1 2.2-2 3.7-2 2.9 0 4.4 2 4.4 4.8v7.1H115v-6.7c0-2.4-1.2-3.2-2.8-3.2-1.9 0-3 1.8-3 3.6V36H107V24.4h2.1L109 26Zm11.5 6.4v-6h-2v-2h2v-3.5h2.2v3.5h2.8v2h-2.8v5.9c0 1.3.5 1.9 1.6 1.9.4 0 .7 0 1-.2l.8 1.9c-.5.2-1 .3-1.7.3-2.6-.1-3.9-1.4-3.9-3.8Zm5.9.6 1.9-.8c.6 1.5 1.7 2.2 3.1 2.2 1.3 0 2.3-.7 2.3-1.6 0-.6-.4-1.2-1.6-1.5l-2.3-.6c-1.1-.3-3.1-1.2-3.1-3.2 0-2.1 2.2-3.4 4.6-3.4 2 0 3.7.9 4.4 2.7l-1.9.8c-.4-1.1-1.5-1.5-2.6-1.5-1.2 0-2.3.5-2.3 1.5 0 .7.6 1.1 1.5 1.3l2.3.5c2.3.5 3.2 2 3.2 3.4 0 2-1.8 3.6-4.5 3.6-2.7-.1-4.3-1.7-5-3.4ZM.1 26.7c0-5.3 4.5-9.6 9.8-9.6 2.9 0 5 1.2 6.6 2.7l-1.9 1.9c-1.1-1.1-2.7-1.9-4.8-1.9-3.9 0-6.9 3.1-6.9 7s3 7 6.9 7c2.5 0 4-1 4.9-1.9.8-.8 1.2-1.8 1.4-3.3H9.9V26h8.9c.1.5.1 1 .1 1.6 0 2-.5 4.4-2.3 6.2-1.7 1.8-3.9 2.7-6.7 2.7C4.6 36.3.1 32 .1 26.7Zm26-2.8c-3.4 0-6.2 2.6-6.2 6.2s2.8 6.2 6.2 6.2c3.4 0 6.2-2.6 6.2-6.2s-2.8-6.2-6.2-6.2Zm0 10c-1.9 0-3.5-1.6-3.5-3.8 0-2.2 1.6-3.8 3.5-3.8s3.5 1.5 3.5 3.8c0 2.2-1.6 3.8-3.5 3.8Zm13.6-10c-3.4 0-6.2 2.6-6.2 6.2s2.8 6.2 6.2 6.2c3.4 0 6.2-2.6 6.2-6.2s-2.8-6.2-6.2-6.2Zm0 10c-1.9 0-3.5-1.6-3.5-3.8 0-2.2 1.6-3.8 3.5-3.8s3.5 1.5 3.5 3.8c0 2.2-1.6 3.8-3.5 3.8Zm16.7-9.6v1h-.1c-.6-.7-1.8-1.4-3.3-1.4-3.1 0-6 2.7-6 6.2s2.8 6.2 6 6.2c1.5 0 2.7-.7 3.3-1.4h.1v.9c0 2.4-1.3 3.6-3.3 3.6-1.7 0-2.7-1.2-3.1-2.2l-2.4 1c.7 1.6 2.5 3.7 5.5 3.7 3.2 0 5.9-1.9 5.9-6.5V24.3h-2.6Zm-3.1 9.6c-1.9 0-3.5-1.6-3.5-3.7 0-2.2 1.6-3.8 3.5-3.8s3.3 1.6 3.3 3.8c0 2.1-1.5 3.7-3.3 3.7Z" fill-rule="nonzero"></path>
  <path d="M60.9 17.7h2.7V36h-2.7z"></path>
  <path d="M71.1 33.9c-1.4 0-2.4-.6-3-1.9l8.3-3.4-.3-.7c-.5-1.4-2.1-4-5.3-4-3.2 0-5.9 2.5-5.9 6.2 0 3.5 2.6 6.2 6.2 6.2 2.8 0 4.5-1.7 5.2-2.8l-2.1-1.4c-.7 1.1-1.7 1.8-3.1 1.8Zm-.2-7.6c1.1 0 2 .5 2.3 1.3l-5.6 2.3c0-2.4 1.9-3.6 3.3-3.6Z" fill-rule="nonzero"></path>
  <path d="M0 17h76.5v25H0z" fill="none"></path>
  <path d="M0 0h136v40H0z" fill="none"></path>
  <path d="M.9.1h1.4L5 5h.1L7.9.1h1.3v8.6H7.9V4L8 2.6h-.1L5.5 6.9h-.8L2.2 2.6h-.1L2.2 4v4.7H.9V.1ZM14.3 8c-.2.2-.5.4-.8.6-.3.2-.6.3-1.1.3-.3 0-.6 0-.9-.1-.3-.1-.5-.2-.7-.4-.2-.2-.4-.4-.5-.6-.1-.2-.2-.5-.2-.8 0-.3.1-.6.2-.8.1-.2.3-.5.5-.6.2-.2.5-.3.8-.4.3-.1.6-.1 1-.1s.7 0 1 .1c.3.1.5.1.6.2V5c0-.2 0-.3-.1-.5s-.1-.3-.2-.4c-.1-.1-.3-.2-.4-.3-.1-.1-.3-.1-.5-.1-.3 0-.6.1-.8.2-.2.1-.4.3-.6.6l-1.1-.7c.3-.4.6-.7 1-.9.4-.2.9-.3 1.4-.3.9 0 1.5.2 2 .6.5.4.7 1 .7 1.8v3.6h-1.3V8Zm0-1.8c-.1-.1-.3-.1-.6-.2-.2-.1-.5-.1-.7-.1-.4 0-.7.1-1 .3-.2.2-.4.4-.4.7 0 .1 0 .3.1.4.1.1.1.2.2.3.1.1.2.1.3.2.1 0 .3.1.4.1.2 0 .4 0 .6-.1.2-.1.4-.2.5-.3.3-.3.4-.5.5-.7.1-.2.1-.4.1-.6Zm7 1.7c-.2.3-.5.5-.8.7-.3.2-.7.3-1.2.3-.4 0-.7-.1-1.1-.2-.3-.2-.6-.4-.9-.7-.3-.3-.5-.6-.6-1-.1-.4-.2-.8-.2-1.3s.1-.9.2-1.3.4-.7.6-1c.3-.3.6-.5.9-.7.3-.2.7-.2 1.1-.2.5 0 .8.1 1.2.3.4.2.6.4.7.7h.1l-.1-.8V.1h1.3v8.6h-1.3v-.8h.1Zm-1.8-.3c.2 0 .4 0 .7-.1.2-.1.4-.2.6-.4.1-.1.2-.3.3-.6.1-.2.1-.5.1-.8 0-.3 0-.6-.1-.8-.1-.2-.2-.4-.4-.6-.2-.2-.3-.3-.6-.4-.2-.1-.4-.1-.7-.1-.2 0-.5 0-.7.1-.2.1-.4.2-.5.4 0 .2-.1.4-.2.7-.1.3-.1.5-.1.8 0 .3 0 .6.1.8.1.2.2.4.4.6.2.2.3.3.5.4h.6Zm9.8-.3c-.2.5-.6.8-1.1 1.1-.5.3-1 .5-1.7.5-.4 0-.8-.1-1.2-.2-.4-.2-.7-.4-1-.7-.3-.3-.5-.6-.6-1-.1-.4-.2-.8-.2-1.3 0-.4.1-.8.2-1.2.1-.4.3-.7.6-1 .3-.3.6-.5.9-.7.4-.2.8-.3 1.2-.3.5 0 .9.1 1.2.2.4.3.7.5 1 .8.2.3.4.6.6 1 .1.4.2.8.2 1.3v.3h-4.5c0 .3.1.5.2.7.1.2.2.4.4.5.2.1.3.2.5.3.2.1.4.1.6.1.4 0 .7-.1.9-.3.3-.2.5-.4.6-.7l1.2.6ZM28 5c0-.1-.1-.3-.1-.4-.1-.1-.2-.3-.3-.4-.1-.1-.2-.2-.4-.3-.2-.1-.4-.1-.7-.1-.4 0-.7.1-1 .3-.3.2-.5.5-.6.9H28Zm5-4.9h1.3v2.7l-.1.8h.1c.2-.3.4-.5.7-.7.3-.2.7-.3 1.2-.3.4 0 .7.1 1.1.2.4.2.7.4.9.7.3.3.5.6.6 1 .2.4.2.8.2 1.3s0 .8-.2 1.2c-.2.4-.4.7-.6 1-.3.3-.6.5-.9.7-.3.2-.7.2-1.1.2-.5 0-.8-.1-1.2-.3-.3-.2-.6-.4-.7-.7h-.1v.8H33V.1Zm3 7.5c.2 0 .4 0 .7-.1.2-.1.4-.2.6-.4.2-.2.3-.4.4-.6.1-.2.1-.5.1-.8 0-.3 0-.6-.1-.8-.1-.2-.2-.4-.4-.6-.3-.1-.4-.2-.6-.3-.2-.1-.4-.1-.7-.1-.2 0-.5 0-.7.1-.2.1-.4.2-.5.4-.2.2-.3.4-.4.6-.1.2-.1.5-.1.8 0 .3 0 .6.1.8.1.2.2.4.4.6.2.2.3.3.5.4h.7Zm5.7.8-2.4-5.5h1.5l1.6 3.9h.1l1.6-3.9h1.5l-3.7 8.5h-1.4l1.2-3ZM51.3 0c.2 0 .4 0 .6.1.2 0 .3.1.5.2L52 1.4c-.1 0-.2-.1-.3-.1h-.4c-.2 0-.4.1-.6.2-.2.1-.2.4-.2.7v.6H52V4h-1.5v4.7h-1.3V4h-1.1V2.8h1.1v-.7c0-.3.1-.6.2-.9.1-.3.2-.5.4-.7.2-.2.4-.3.7-.4.3-.1.5-.1.8-.1Zm1.8 2.8h1.3v.9h.1c.1-.2.2-.3.3-.4.1-.1.2-.3.4-.4.2-.1.3-.2.5-.2.2-.1.3-.1.5-.1s.4 0 .5.1c.1 0 .3.1.4.1L56.7 4c-.1 0-.2-.1-.3-.1H56c-.2 0-.4 0-.6.1-.2.1-.3.2-.5.4-.1.2-.2.3-.3.5-.1.2-.1.4-.1.7v3.1h-1.3V2.8h-.1Zm5.4-1c-.3 0-.5-.1-.6-.3-.1-.2-.3-.4-.3-.6 0-.2.1-.5.3-.6.2-.2.4-.3.6-.3.2 0 .5.1.6.3.2.2.3.4.3.6 0 .2-.1.5-.3.6-.2.1-.3.3-.6.3Zm-.6 6.9V2.8h1.3v5.9h-1.3ZM66 7.3c-.2.5-.6.8-1.1 1.1-.5.3-1 .5-1.7.5-.4 0-.8-.1-1.2-.2-.4-.2-.7-.4-1-.7-.3-.3-.5-.6-.6-1-.1-.4-.2-.8-.2-1.3 0-.4.1-.8.2-1.2.1-.4.3-.7.6-1 .3-.2.6-.5 1-.6.4-.2.8-.3 1.2-.3.5 0 .9.1 1.2.2.4.2.7.4.9.6.2.3.4.6.6 1 .1.4.2.8.2 1.3V6h-4.5c0 .3.1.5.2.7.1.3.2.4.4.6.2.1.3.2.5.3.2.1.4.1.6.1.4 0 .7-.1.9-.3.2-.2.5-.4.6-.7l1.2.6ZM64.8 5c0-.1-.1-.3-.1-.4-.1-.1-.2-.3-.3-.4-.1-.1-.3-.2-.5-.3-.2-.1-.4-.1-.7-.1-.4 0-.7.1-1 .3-.3.2-.5.5-.6.9h3.2Zm3.6-1.4c.2-.3.5-.5.8-.7.3-.2.7-.3 1.1-.3.7 0 1.3.2 1.7.7.4.4.6 1 .6 1.8v3.6h-1.3V5.2c0-.5-.1-.9-.4-1.1-.2-.2-.5-.3-.9-.3-.2 0-.4 0-.6.1-.2.1-.3.2-.5.4l-.3.6c-.1.2-.1.4-.1.7v3.1h-1.3V2.8h1.3v.8h-.1Zm9.9 4.3c-.2.3-.5.5-.8.7-.3.2-.7.3-1.2.3-.4 0-.7-.1-1.1-.2-.3-.2-.6-.4-.9-.7-.3-.3-.5-.6-.6-1-.2-.4-.2-.8-.2-1.3s.1-.9.2-1.3c.2-.4.4-.7.6-1 .3-.3.6-.5.9-.7.3-.2.7-.2 1.1-.2.5 0 .8.1 1.2.3.4.2.6.4.7.7h.1l-.1-.8V.1h1.3v8.6h-1.3v-.8h.1Zm-1.8-.3c.2 0 .4 0 .7-.1.2-.1.4-.2.6-.4.1-.1.2-.3.3-.6.1-.2.1-.5.1-.8 0-.3 0-.6-.1-.8-.1-.2-.2-.4-.4-.6-.2-.2-.3-.3-.6-.4-.2-.1-.4-.1-.7-.1-.2 0-.5 0-.7.1-.2.1-.4.2-.5.4 0 .2-.2.4-.2.7-.1.2-.1.5-.1.8 0 .3 0 .6.1.8 0 .2.2.4.3.5.2.2.3.3.5.4.3.1.5.1.7.1ZM83 8.9c-.4 0-.7 0-1-.1-.3-.1-.5-.2-.8-.4-.2-.2-.4-.3-.5-.5-.1-.2-.3-.4-.3-.6l1.2-.5c.2.2.4.5.6.7.3.2.5.2.8.2.3 0 .6-.1.8-.2.2-.1.3-.3.3-.5s-.1-.3-.2-.4c-.1-.1-.4-.2-.8-.3l-.8-.2c-.2 0-.4-.1-.6-.2-.2-.1-.4-.2-.5-.3-.1-.1-.3-.3-.4-.5-.1-.2-.1-.4-.1-.7 0-.3.1-.5.2-.8.1-.2.3-.4.5-.6.2-.2.5-.3.8-.3.3-.1.6-.1.9-.1.3 0 .5 0 .8.1.1.1.3.1.5.3.2.1.4.3.6.4.2.2.3.4.4.6l-1.2.5c-.1-.3-.3-.4-.5-.6-.2-.1-.5-.2-.7-.2h-.3c-.1 0-.2.1-.3.1-.2.2-.3.2-.4.3-.1.1 0 .2 0 .3 0 .2.1.3.2.4.1.1.4.2.6.2l.9.2c.6.2 1.1.4 1.3.7.2.3.4.7.4 1.1 0 .3-.1.5-.2.7-.1.2-.3.4-.5.6-.2.2-.5.3-.8.4-.2.1-.5.2-.9.2Zm8.8-6.3c.4 0 .9.1 1.2.2.4.2.7.4 1 .7.3.3.5.6.6 1 .1.4.2.8.2 1.2 0 .4-.1.9-.2 1.2-.2.4-.4.7-.6 1-.3.3-.6.5-1 .7-.4.2-.8.2-1.2.2-.4 0-.8 0-1.2-.2-.4-.2-.7-.4-1-.7-.3-.3-.5-.6-.6-1-.2-.4-.2-.8-.2-1.2 0-.4.1-.9.2-1.2.2-.4.4-.7.6-1 .3-.3.6-.5 1-.7.4-.1.8-.2 1.2-.2Zm0 5c.2 0 .4 0 .6-.1.2-.1.4-.2.6-.4.2-.2.3-.4.4-.6.1-.2.1-.5.1-.8 0-.3 0-.6-.1-.8-.1-.2-.2-.4-.4-.6-.2-.2-.3-.3-.6-.4-.2-.1-.4-.1-.6-.1-.2 0-.4 0-.6.1-.2.1-.4.2-.6.4-.2.2-.3.4-.4.6-.1.2-.1.5-.1.8 0 .3 0 .6.1.8.1.2.2.4.4.6.2.2.3.3.6.4.2.1.4.1.6.1ZM98.5 0c.2 0 .4 0 .6.1.2.1.3.1.5.2l-.4 1.2c-.1 0-.2-.1-.3-.1h-.4c-.2 0-.4.1-.6.2-.2.1-.2.4-.2.7v.6h1.5V4h-1.5v4.7h-1.3V4h-1.1V2.8h1.1v-.7c0-.3.1-.6.2-.9.1-.2.2-.5.4-.6.2-.2.4-.3.7-.4.2-.2.5-.2.8-.2Z" fill-rule="nonzero"></path>
</svg>
